<?xml version="1.0" standalone="no"?>
<!DOCTYPE svg PUBLIC "-//W3C//DTD SVG 20010904//EN"
 "http://www.w3.org/TR/2001/REC-SVG-20010904/DTD/svg10.dtd">
<svg version="1.0" xmlns="http://www.w3.org/2000/svg"
 width="305.000000pt" height="305.000000pt" viewBox="0 0 305.000000 305.000000"
 preserveAspectRatio="xMidYMid meet">
<metadata>
Created by potrace 1.11, written by Peter Selinger 2001-2013
</metadata>
<g transform="translate(0.000000,305.000000) scale(0.100000,-0.100000)"
fill="#000000" stroke="none">
<path d="M144 2146 l0 -906 26 -1 c72 -2 741 2 775 5 22 2 47 6 55 9 8 3 26 8
40 10 23 5 60 14 85 21 6 2 22 8 38 14 15 7 38 16 51 21 32 13 123 78 161 116
42 41 88 111 109 165 18 46 20 52 36 130 15 75 11 774 -6 850 -46 215 -192
363 -429 434 -90 27 -116 29 -531 33 l-410 4 0 -905z m706 473 c36 -1 80 -7
98 -14 48 -16 98 -69 110 -116 6 -23 10 -173 10 -355 0 -314 -1 -315 -25 -364
-13 -27 -33 -52 -44 -55 -10 -4 -19 -10 -19 -15 0 -8 -26 -16 -90 -26 -58 -9
-180 -10 -180 -1 0 5 -5 5 -11 2 -6 -4 -28 -8 -50 -9 -28 -1 -39 3 -40 14 -1
8 -2 222 -3 475 l-1 460 85 5 c47 3 87 4 90 3 3 -1 35 -2 70 -4z"/>
<path d="M1590 1728 c-3 -158 -89 -322 -220 -419 -33 -24 -148 -84 -162 -84
-3 0 -10 -4 -15 -8 -4 -5 -8 -281 -9 -613 l-1 -604 222 0 222 0 -3 303 c-1
166 -4 311 -7 322 -3 11 -8 65 -12 120 -4 55 -9 103 -12 108 -2 4 0 7 6 7 8 0
17 -18 26 -50 1 -3 9 -21 17 -40 8 -19 57 -142 108 -272 l93 -238 152 0 152 0
51 133 c28 72 78 204 112 292 33 88 66 165 72 170 9 9 5 -87 -8 -200 -2 -16
-6 -171 -9 -342 l-4 -313 222 0 223 0 0 873 -1 872 -221 1 -221 0 -26 -60
c-55 -128 -240 -553 -261 -601 -12 -27 -35 -81 -51 -118 -16 -37 -31 -64 -35
-60 -4 4 -80 178 -170 386 -89 209 -169 395 -178 415 -20 43 -52 55 -52 20z"/>
</g>
</svg>
